<?xml version="1.0" encoding="UTF-8"?>
<svg id="Layer_1" xmlns="http://www.w3.org/2000/svg" version="1.1" xmlns:xlink="http://www.w3.org/1999/xlink" viewBox="0 0 800 800">
  <!-- Generator: Adobe Illustrator 30.3.0, SVG Export Plug-In . SVG Version: 2.1.3 Build 182)  -->
  <defs>
    <clipPath id="clippath">
      <rect y="114.29" width="800" height="571.43" rx="57.14" ry="57.14" fill="none"/>
    </clipPath>
  </defs>
  <g clip-path="url(#clippath)">
    <g>
      <rect y="114.29" width="800" height="571.43" rx="57.14" ry="57.14" fill="#fff"/>
      <g>
        <rect y="542.29" width="133.33" height="143.43" fill="#58595b"/>
        <rect x="133.33" y="542.29" width="133.33" height="143.43" fill="#2a2d2c"/>
        <rect x="266.67" y="542.29" width="133.33" height="143.43" fill="#58595b"/>
        <rect x="400" y="542.29" width="133.33" height="143.43" fill="#2a2d2c"/>
        <rect x="533.33" y="542.29" width="133.33" height="143.43" fill="#58595b"/>
        <rect x="666.67" y="542.29" width="133.33" height="143.43" fill="#2a2d2c"/>
        <rect y="398.86" width="133.33" height="143.43" fill="#2a2d2c"/>
        <rect x="133.33" y="398.86" width="133.33" height="143.43" fill="#58595b"/>
        <rect x="266.67" y="398.86" width="133.33" height="143.43" fill="#2a2d2c"/>
        <rect x="400" y="398.86" width="133.33" height="143.43" fill="#58595b"/>
        <rect x="533.33" y="398.86" width="133.33" height="143.43" fill="#2a2d2c"/>
        <rect x="666.67" y="398.86" width="133.33" height="143.43" fill="#58595b"/>
        <rect y="255.43" width="133.33" height="143.43" fill="#58595b"/>
        <rect x="133.33" y="255.43" width="133.33" height="143.43" fill="#2a2d2c"/>
        <rect x="266.67" y="255.43" width="133.33" height="143.43" fill="#58595b"/>
        <rect x="400" y="255.43" width="133.33" height="143.43" fill="#2a2d2c"/>
        <rect x="533.33" y="255.43" width="133.33" height="143.43" fill="#58595b"/>
        <rect x="666.67" y="255.43" width="133.33" height="143.43" fill="#2a2d2c"/>
        <rect y="112" width="133.33" height="143.43" fill="#2a2d2c"/>
        <rect x="133.33" y="112" width="133.33" height="143.43" fill="#58595b"/>
        <rect x="266.67" y="112" width="133.33" height="143.43" fill="#2a2d2c"/>
        <rect x="400" y="112" width="133.33" height="143.43" fill="#58595b"/>
        <rect x="533.33" y="112" width="133.33" height="143.43" fill="#2a2d2c"/>
        <rect x="666.67" y="112" width="133.33" height="143.43" fill="#58595b"/>
      </g>
    </g>
  </g>
</svg>