<?xml version="1.0" encoding="utf-8"?>
<!-- Generator: Adobe Illustrator 29.8.1, SVG Export Plug-In . SVG Version: 9.03 Build 0)  -->
<svg version="1.0" id="katman_1" xmlns="http://www.w3.org/2000/svg" xmlns:xlink="http://www.w3.org/1999/xlink" x="0px" y="0px"
	 viewBox="0 0 321.2 321" style="enable-background:new 0 0 321.2 321;" xml:space="preserve">
<style type="text/css">
	.st0{fill:#4C74B9;}
	.st1{fill:#E8326A;}
</style>
<g>
	<path class="st0" d="M10.1,160.6h60.2c5.5,0,10-4.5,10-10V90.4c0-5.5,4.5-10,10-10h220.8c5.5,0,10-4.5,10-10V10c0-5.5-4.5-10-10-10
		H80.3C36,0,0,35.9,0,80.3v70.2C0,156.1,4.5,160.6,10.1,160.6z"/>
	<path class="st1" d="M311.1,160.6h-60.2c-5.5,0-10,4.5-10,10v60.2c0,5.5-4.5,10-10,10H10.1c-5.5,0-10,4.5-10,10V311
		c0,5.5,4.5,10,10,10h230.8c44.3,0,80.3-35.9,80.3-80.3v-70.2C321.2,165.1,316.7,160.6,311.1,160.6z"/>
</g>
</svg>
